# xmcd
#
# Track frame offsets:
# 150
# 17549
# 29701
# 45734
# 62961
# 78664
# 93988
# 107007
# 122200
# 140249
# 158291
# 173028
#
# Disc length: 2567 seconds
#
#
# Revision: 0
# Processed by: cddbd v1.5.2PL0 Copyright (c) Steve Scherf et al.
# Submitted via: FreeRIP 2.945 
#
DISCID=9e0a050c
DTITLE=Various Artist - Country Songs Of Love
DYEAR=2006
DGENRE=Country
TTITLE0=George Strait - Carrying Your Love With Me
TTITLE1=Clay Walker -You're Beginning To Get To Me
TTITLE2=Lee Ann Womack - The Fool
TTITLE3=Jo Dee Messina - Because You Love Me
TTITLE4=John Michael Montgomery - Home To You
TTITLE5=Vince Gill - You and You Alone
TTITLE6=LeAnn Rimes - Crazy
TTITLE7=Reba McEntire/Vince Gill - The Heart Won't Lie
TTITLE8=Mark Willis - Wish You Were Here
TTITLE9=Dwight Yoakam - You're The One
TTITLE10=Blake Shelton - All Over Me
TTITLE11=Sammy Kershaw - Love Of My Life
EXTD=
EXTT0=
EXTT1=
EXTT2=
EXTT3=
EXTT4=
EXTT5=
EXTT6=
EXTT7=
EXTT8=
EXTT9=
EXTT10=
EXTT11=
PLAYORDER=
